<svg preserveAspectRatio="none" width="100%" height="100%" overflow="visible" style="display: block;" viewBox="0 0 30 30" fill="none" xmlns="http://www.w3.org/2000/svg">
<path id="Vector" fill-rule="evenodd" clip-rule="evenodd" d="M3 15C3.00022 12.6907 3.66677 10.4305 4.91968 8.49057C6.17259 6.55068 7.95864 5.01352 10.0635 4.06352C12.1684 3.11352 14.5027 2.79106 16.7863 3.13481C19.0698 3.47856 21.2058 4.47394 22.9377 6.00149C24.6696 7.52904 25.924 9.52389 26.5503 11.7467C27.1766 13.9694 27.1482 16.3257 26.4685 18.5328C25.7889 20.7398 24.4869 22.7039 22.7187 24.1893C20.9505 25.6747 18.7912 26.6183 16.5 26.907V18H19.5C19.8978 18 20.2794 17.842 20.5607 17.5607C20.842 17.2794 21 16.8978 21 16.5C21 16.1022 20.842 15.7206 20.5607 15.4393C20.2794 15.158 19.8978 15 19.5 15H16.5V12C16.5 11.6022 16.658 11.2206 16.9393 10.9393C17.2206 10.658 17.6022 10.5 18 10.5H18.75C19.1478 10.5 19.5294 10.342 19.8107 10.0607C20.092 9.77936 20.25 9.39782 20.25 9C20.25 8.60218 20.092 8.22064 19.8107 7.93934C19.5294 7.65804 19.1478 7.5 18.75 7.5H18C16.8065 7.5 15.6619 7.97411 14.818 8.81802C13.9741 9.66193 13.5 10.8065 13.5 12V15H10.5C10.1022 15 9.72064 15.158 9.43934 15.4393C9.15804 15.7206 9 16.1022 9 16.5C9 16.8978 9.15804 17.2794 9.43934 17.5607C9.72064 17.842 10.1022 18 10.5 18H13.5V26.907C10.5999 26.5416 7.93291 25.1303 5.99963 22.938C4.06635 20.7456 2.99973 17.923 3 15ZM15 30C23.2845 30 30 23.2845 30 15C30 6.7155 23.2845 0 15 0C6.7155 0 0 6.7155 0 15C0 23.2845 6.7155 30 15 30Z" fill="var(--fill-0, white)"/>
</svg>
